<?xml version="1.0" encoding="utf-8"?>
<!-- Generator: Adobe Illustrator 22.0.1, SVG Export Plug-In . SVG Version: 6.00 Build 0)  -->
<svg version="1.1" id="Layer_2" xmlns="http://www.w3.org/2000/svg" xmlns:xlink="http://www.w3.org/1999/xlink" x="0px" y="0px"
	 viewBox="0 0 283.5 283.5" style="enable-background:new 0 0 283.5 283.5;" xml:space="preserve">
<style type="text/css">
	.st0{fill:#006796;}
</style>
<g>
	<g>
		<g>
			<path class="st0" d="M260.8,266.5c0,3.3,0,6.4,0,9.6c-30.2,0-60.3,0-90.6,0c0-3.1,0-6.3,0-9.6c2.7-0.3,5.4-0.5,8.1-0.9
				c12-1.9,17-6.9,18.7-18.9c0.6-4.1,1-8.3,1-12.4c0.1-32,0-64,0-96c0-0.8-0.1-1.6-0.1-2.5c-19.3,0-38.5,0-57.9,0
				c0,8.1,0,16.1,0,24.3c0.8,0,1.6,0.1,2.5,0.1c5.6,0,11.2,0,16.7,0c3.7,0,5.7,1.8,6.1,5.5c0.1,0.6,0,1.2,0,1.9
				c0,22.1,0,44.1,0,66.2c0,1.3-0.2,2.7-0.6,3.9c-0.8,2.3-2.3,3.5-5,3.5c-11.8-0.1-23.6,0-35.4,0c-3.6,0-5.5-1.7-5.9-5.4
				c-0.1-0.9,0-1.8,0-2.7c0-58.5,0-117,0-175.4c0-1.5,0.1-3,0.5-4.4c0.7-2.5,2.4-3.7,5.1-3.7c11.8,0.1,23.6,0,35.4,0
				c3.5,0,5.4,1.7,5.8,5.2c0.1,1,0.1,1.9,0.1,2.9c0,20.4,0,40.8,0,61.1c0,1,0,2.1,0,3.3c10.9,0,21.6,0,32.6,0
				c0.1-0.9,0.2-1.9,0.2-2.8c0-23.3,0.1-46.6-0.1-69.9c-0.1-5.8-0.9-11.6-1.9-17.4c-1.3-7.1-5.9-11.4-12.8-13.1
				c-4.3-1.1-8.7-1.6-13.2-2.4c0-2.9,0-6,0-9.3c30.1,0,60.3,0,90.8,0c0,2.8,0.1,5.5-0.1,8.2c0,0.6-1.3,1.4-2.1,1.6
				c-3.7,0.7-7.6,1-11.2,1.9c-6.7,1.6-11.1,5.9-12.6,12.6c-1,4.4-2,8.9-2,13.3c-0.2,31.1-0.2,62.2-0.2,93.3c0,33.4,0,66.8,0.2,100.2
				c0,4.6,1,9.3,2.1,13.9c1.4,6,5.3,10,11.2,11.7c3.6,1,7.4,1.5,11.2,2.1C258.5,266.3,259.6,266.4,260.8,266.5z"/>
		</g>
		<g>
			<path class="st0" d="M22.5,276.1c0-2.8-0.1-5.6,0.1-8.4c0-0.5,1.1-1.2,1.8-1.3c2.4-0.4,4.8-0.4,7.1-0.7
				c11.6-1.9,16.6-6.8,18.3-18.4c0.6-4.2,1-8.5,1-12.7c0.1-61.9,0.1-123.9,0-185.8c0-5.5-0.9-11.1-1.9-16.5c-1.3-7-5.8-11.2-12.5-13
				c-3.7-1-7.6-1.4-11.5-1.9c-1.7-0.2-2.6-0.7-2.4-2.6c0.1-2.4,0-4.8,0-7.3c30.5,0,60.7,0,91.1,0c0,3.1,0,6.2,0,9.5
				c-0.7,0.1-1.4,0.3-2.2,0.4c-2.2,0.3-4.4,0.4-6.6,0.7c-11.1,1.7-16.3,6.7-18,17.8c-0.7,4.5-1.1,9.2-1.1,13.7
				c-0.1,61.3-0.1,122.6,0,183.9c0,4.5,0.5,9.1,1.6,13.4c2.8,11.5,10.7,18,22.6,19.2c1.2,0.1,2.4,0.3,3.8,0.4c0,3.3,0,6.3,0,9.6
				C83.4,276.1,53.1,276.1,22.5,276.1z"/>
		</g>
	</g>
	<g>
		<g>
			<path class="st0" d="M261,276.3h-90.9v-9.9l0.2,0c0.9-0.1,1.7-0.2,2.6-0.2c1.8-0.2,3.7-0.3,5.5-0.6c12-1.9,16.9-6.8,18.6-18.8
				c0.6-4.4,1-8.6,1-12.4c0.1-25.5,0.1-51.5,0-76.6l0-19.4c0-0.5,0-1-0.1-1.6c0-0.2,0-0.5,0-0.7h-57.6v24c0.2,0,0.4,0,0.6,0
				c0.6,0,1.1,0.1,1.7,0.1c3.3,0,6.5,0,9.8,0c2.3,0,4.6,0,7,0c3.8,0,5.9,1.9,6.2,5.7c0,0.5,0,1,0,1.5l0,0.4l0,8
				c0,19.1,0,38.8,0,58.2c0,1.5-0.2,2.8-0.6,4c-0.8,2.4-2.5,3.6-5.1,3.6c0,0,0,0-0.1,0c-8.3-0.1-16.7-0.1-24.9,0c-3.5,0-7,0-10.5,0
				c-3.7,0-5.7-1.8-6.1-5.5c-0.1-0.7-0.1-1.4-0.1-2c0-0.2,0-0.4,0-0.7v-12.5c0-53.4,0-108.6,0-162.9c0-1.8,0.2-3.2,0.5-4.5
				c0.7-2.5,2.4-3.8,5.2-3.8c0,0,0.1,0,0.1,0c8.2,0.1,16.6,0.1,24.7,0c3.6,0,7.1,0,10.7,0c3.6,0,5.5,1.8,6,5.4
				c0.1,0.7,0.1,1.5,0.1,2.3c0,0.2,0,0.5,0,0.7c0,20.4,0,40.8,0,61.1v3.1h32.2c0-0.2,0-0.5,0-0.7c0-0.6,0.1-1.3,0.1-1.9
				c0-5.9,0-11.8,0-17.7c0-17.1,0.1-34.8-0.1-52.2c-0.1-6.3-1-12.6-1.9-17.3c-1.2-6.7-5.6-11.2-12.6-13c-2.9-0.7-5.9-1.2-9-1.7
				c-1.4-0.2-2.8-0.4-4.2-0.7l-0.2,0V7.2h91.1v0.2c0,0.7,0,1.5,0,2.2c0,2,0,4-0.1,6c-0.1,0.7-1.4,1.6-2.2,1.7
				c-1.6,0.3-3.2,0.5-4.7,0.7c-2.1,0.3-4.4,0.6-6.5,1.1c-6.7,1.6-11,5.9-12.5,12.5c-1,4.5-2,8.9-2,13.3c-0.2,27.7-0.2,55.9-0.2,83.1
				v22.7c0,28.7,0,58.5,0.2,87.7c0,4.5,0.9,8.9,2.1,13.8c1.3,5.9,5.1,9.9,11,11.6c2.6,0.8,5.4,1.2,8.1,1.6c1,0.2,2.1,0.3,3.1,0.5
				c0.8,0.1,1.5,0.2,2.3,0.3c0.4,0,0.7,0.1,1.1,0.1l0.2,0V276.3z M170.4,275.9h90.2v-9.3c-0.3,0-0.6-0.1-1-0.1
				c-0.8-0.1-1.6-0.1-2.4-0.3c-1-0.2-2.1-0.3-3.1-0.5c-2.7-0.4-5.5-0.8-8.1-1.6c-6-1.7-9.9-5.8-11.3-11.8c-1.1-5-2-9.4-2.1-13.9
				c-0.2-29.2-0.2-58.9-0.2-87.7v-22.7c0-27.2,0-55.4,0.2-83.1c0-4.4,1-8.9,2-13.4c1.5-6.7,5.9-11.1,12.8-12.7
				c2.1-0.5,4.4-0.8,6.5-1.1c1.6-0.2,3.2-0.4,4.7-0.7c0.8-0.1,1.9-1,1.9-1.4c0.2-2,0.1-4,0.1-6c0-0.7,0-1.3,0-2h-90.4v9
				c1.4,0.2,2.7,0.5,4,0.7c3.1,0.5,6.1,1,9,1.7c7.2,1.8,11.7,6.4,12.9,13.3c0.9,4.8,1.9,11.1,1.9,17.4c0.2,17.4,0.1,35.1,0.1,52.2
				c0,5.9,0,11.8,0,17.7c0,0.6,0,1.3-0.1,1.9c0,0.3,0,0.6-0.1,0.9l0,0.2h-32.9v-3.5c0-20.4,0-40.8,0-61.1c0-0.2,0-0.5,0-0.7
				c0-0.7,0-1.5-0.1-2.2c-0.4-3.4-2.3-5-5.6-5c-3.5,0-7.1,0-10.7,0c-8.1,0-16.5,0-24.7,0c0,0-0.1,0-0.1,0c-2.6,0-4.2,1.1-4.9,3.5
				c-0.4,1.2-0.5,2.7-0.5,4.4c0,54.3,0,109.5,0,162.9v12.5c0,0.2,0,0.4,0,0.7c0,0.6,0,1.3,0.1,2c0.4,3.5,2.2,5.2,5.7,5.2
				c3.5,0,7,0,10.5,0c8.2,0,16.6,0,24.9,0c0,0,0,0,0.1,0c2.5,0,4-1.1,4.7-3.4c0.4-1.1,0.6-2.4,0.6-3.8c0-19.4,0-39.1,0-58.2l0-8
				l0-0.4c0-0.5,0-1,0-1.4c-0.4-3.6-2.2-5.3-5.9-5.3c-2.3,0-4.7,0-7,0c-3.3,0-6.5,0-9.8,0c-0.6,0-1.2,0-1.7-0.1c-0.3,0-0.5,0-0.7,0
				l-0.2,0v-24.7h58.3l0,0.2c0,0.3,0,0.6,0.1,0.9c0,0.6,0.1,1.1,0.1,1.6l0,19.4c0,25.1,0,51,0,76.6c0,3.9-0.3,8.1-1,12.5
				c-1.7,12-6.9,17.2-18.9,19.1c-1.8,0.3-3.7,0.5-5.6,0.6c-0.8,0.1-1.6,0.1-2.4,0.2V275.9z"/>
		</g>
		<g>
			<path class="st0" d="M113.8,276.2H22.4v-0.2c0-0.7,0-1.4,0-2.1c0-2.1,0-4.2,0.1-6.3c0-0.6,1.3-1.4,2-1.5c1.2-0.2,2.3-0.3,3.5-0.4
				c1.2-0.1,2.4-0.2,3.6-0.4c11.5-1.8,16.4-6.8,18.2-18.3c0.7-4.6,1-8.7,1-12.7c0.1-58.5,0.1-121.5,0-185.8c0-5.5-0.9-10.9-1.9-16.5
				c-1.2-6.6-5.5-11-12.4-12.9c-3.6-0.9-7.4-1.4-11.1-1.8l-0.4,0c-1.8-0.2-2.7-0.7-2.6-2.7c0.1-1.6,0.1-3.3,0.1-5c0-0.8,0-1.5,0-2.3
				V7.2h91.5V17l-0.2,0c-0.2,0-0.4,0.1-0.7,0.1c-0.5,0.1-1,0.2-1.6,0.2c-0.8,0.1-1.6,0.2-2.4,0.2c-1.4,0.1-2.8,0.3-4.2,0.5
				C93.7,19.9,88.7,24.8,87,35.7c-0.7,4.5-1.1,9.1-1.1,13.7c-0.1,67.8-0.1,128,0,183.9c0,4.5,0.6,9.2,1.6,13.3
				c2.8,11.3,10.5,17.9,22.4,19.1c0.8,0.1,1.7,0.2,2.5,0.3l1.4,0.2V276.2z M22.7,275.9h90.7v-9.3l-1.1-0.1c-0.9-0.1-1.7-0.2-2.5-0.3
				c-12.1-1.2-19.9-8-22.7-19.4c-1-4.2-1.6-8.9-1.6-13.4c-0.1-55.9-0.1-116.1,0-183.9c0-4.6,0.4-9.2,1.1-13.8
				c1.8-11.1,6.9-16.2,18.2-17.9c1.4-0.2,2.8-0.4,4.2-0.5c0.8-0.1,1.6-0.2,2.4-0.2c0.5-0.1,1-0.2,1.5-0.2c0.2,0,0.3-0.1,0.5-0.1V7.6
				H22.7c0,0.7,0,1.4,0,2.1c0,1.7,0,3.4-0.1,5c-0.1,1.8,0.6,2.2,2.3,2.4l0.4,0c3.7,0.4,7.5,0.9,11.1,1.8c7.1,1.9,11.4,6.4,12.7,13.2
				c1,5.6,1.9,11.1,1.9,16.6c0.1,64.3,0.1,127.3,0,185.8c0,3.9-0.3,8.1-1,12.7c-1.8,11.7-6.8,16.7-18.5,18.6
				c-1.2,0.2-2.5,0.3-3.7,0.4c-1.1,0.1-2.3,0.2-3.5,0.4c-0.6,0.1-1.6,0.8-1.7,1.1c-0.1,2.1-0.1,4.2-0.1,6.3
				C22.7,274.6,22.7,275.2,22.7,275.9z"/>
		</g>
	</g>
</g>
</svg>
